<?xml version="1.0" encoding="utf-8"?>
<!-- Generator: Adobe Illustrator 22.1.0, SVG Export Plug-In . SVG Version: 6.00 Build 0)  -->
<svg version="1.1" id="bakingtray" xmlns="http://www.w3.org/2000/svg" xmlns:xlink="http://www.w3.org/1999/xlink" x="0px"
	 y="0px" viewBox="0 0 235.8 126.9" style="enable-background:new 0 0 235.8 126.9;" xml:space="preserve">
<style type="text/css">
	.st0{fill:#808080;stroke:#000000;stroke-miterlimit:10;}
	.st1{fill:#A67C52;stroke:#7D0000;stroke-miterlimit:10;}
	.st2{fill:#A67C52;stroke:#000000;stroke-miterlimit:10;}
	.st3{fill:#A67C52;stroke:#006837;stroke-miterlimit:10;}
		.opacity{ opacity: 0.5;}
	</style>

<defs>
	<script>
		(() => {
		let iconOne = document.querySelector("#bakingtray");

		function logThisIconOne() {
			console.log(this.id);
		}

		iconOne.addEventListener("click", logThisIconOne);

		document.querySelector("#bakingtray").addEventListener("click", opacity);

		function opacity() {
		document.getElementById("bakingtray").classList.add("opacity");
		}

		})();
	</script>
</defs>


<path id="pan" class="st0" d="M9.2,0.5H227c0,0,16.5,56.9,3.1,125.9H9.2c0,0-13.5-38.1-6.9-91.5C3.7,24,5.9,12.5,9.2,0.5z"/>
<polygon id="rs4" class="st1" points="24.5,52.7 26.4,41.1 17.9,33 29.5,31.2 34.6,20.6 39.9,31.1 51.5,32.7 43.2,41 45.3,52.6 
	34.8,47.2 "/>
<polygon id="rs3" class="st1" points="108,46.5 92.4,42.3 80.1,52.7 79.3,36.6 65.6,28.2 80.7,22.5 84.5,6.8 94.6,19.4 110.7,18.1 
	101.9,31.6 "/>
<polygon id="rs2" class="st1" points="124.8,51 132.2,39.2 126.7,26.4 140.1,29.8 150.6,20.6 151.5,34.5 163.5,41.6 150.6,46.8 
	147.5,60.3 138.6,49.7 "/>
<polygon id="rs1" class="st1" points="215.6,50.3 202.1,46 190.9,54.8 190.8,40.6 179,32.7 192.4,28.2 196.3,14.5 204.8,25.9 
	218.9,25.4 210.7,36.9 "/>
<polygon id="bs1" class="st2" points="17.5,80.7 22.2,74.1 19.5,66.5 27.2,69 33.6,64.1 33.6,72.2 40.3,76.8 32.6,79.3 30.3,87 
	25.5,80.5 "/>
<polygon id="gs4" class="st3" points="66,119.4 54.7,113.3 43.3,119.1 45.6,106.5 36.5,97.4 49.2,95.7 55,84.3 60.6,95.9 73.3,97.9 
	64,106.7 "/>
<polygon id="gs3" class="st3" points="114,113.4 99.3,102 81.6,107.7 87.8,90.2 76.9,75.2 95.5,75.7 106.4,60.6 111.7,78.5 
	129.4,84.2 114,94.8 "/>
<polygon id="gs2" class="st3" points="169.8,100.7 158.3,98.6 150.1,106.9 148.5,95.3 138.1,90.1 148.6,85 150.4,73.5 158.4,81.9 
	169.9,80 164.4,90.3 "/>
<polygon id="gs1" class="st3" points="210.3,118.6 197.2,108 181.1,112.8 187.1,97.1 177.6,83.2 194.4,84.1 204.7,70.8 209,87 
	224.9,92.7 210.7,101.8 "/>
</svg>
