<?xml version="1.0" encoding="utf-8"?>
<!-- Generator: Adobe Illustrator 22.1.0, SVG Export Plug-In . SVG Version: 6.00 Build 0)  -->
<svg version="1.1" id="cleaver" xmlns="http://www.w3.org/2000/svg" xmlns:xlink="http://www.w3.org/1999/xlink" x="0px" y="0px"
	 viewBox="0 0 73 114.9" style="enable-background:new 0 0 73 114.9;" xml:space="preserve">
<style type="text/css">
	.st0{fill:url(#metal_1_);stroke:#000000;stroke-miterlimit:10;}
	.st1{fill:#FFFFFF;stroke:#000000;stroke-miterlimit:10;}
	.st2{fill:#1A1A1A;stroke:#000000;stroke-miterlimit:10;}
	.opacity{ opacity: 0.5;}
	</style>

<defs>
	<script>
		(() => {
		let iconOne = document.querySelector("#cleaver");

		function logThisIconOne() {
			console.log(this.id);
		}

		iconOne.addEventListener("click", logThisIconOne);

		document.querySelector("#cleaver").addEventListener("click", opacity);

		function opacity() {
		document.getElementById("cleaver").classList.add("opacity");
		}

		})();
	</script>
</defs>



<linearGradient id="metal_1_" gradientUnits="userSpaceOnUse" x1="0.6114" y1="57.4414" x2="72.5486" y2="57.4414">
	<stop  offset="0" style="stop-color:#FFFFFF"/>
	<stop  offset="1" style="stop-color:#000000"/>
</linearGradient>
<path id="metal" class="st0" d="M0.6,9.1c0,0,9,59.8,13.3,68.6c0,0,28.3-8.3,29,2c0,0,10-3.8,11.3,2.9c1.3,6.8-0.7,11.1,3.3,19.1
	s0,9.7,0,9.7s12,7.7,14.7-1.7c2.7-9.3-15.3-82.7-12.3-102.3S27.6,17.1,0.6,9.1z"/>
<circle id="hole" class="st1" cx="50.8" cy="9.9" r="2.8"/>
<path id="handle_mark" class="st2" d="M42.4,76.2c0,0,17.6-2.4,23.4-5.4c0,0,2,2.3,1.4,6.4L54.1,80L42.4,76.2z"/>
<circle id="c3" class="st1" cx="61.9" cy="84.9" r="1.3"/>
<circle id="c2" class="st1" cx="63.3" cy="96.2" r="1.4"/>
<circle id="c1" class="st1" cx="64.9" cy="109.6" r="1.4"/>
</svg>
