<?xml version="1.0" encoding="utf-8"?>
<!-- Generator: Adobe Illustrator 22.1.0, SVG Export Plug-In . SVG Version: 6.00 Build 0)  -->
<svg version="1.1" id="Corkscrew" xmlns="http://www.w3.org/2000/svg" xmlns:xlink="http://www.w3.org/1999/xlink" x="0px" y="0px"
	 viewBox="0 0 149.4 123.3" style="enable-background:new 0 0 149.4 123.3;" xml:space="preserve">
<style type="text/css">
	.st0{fill:url(#screw_1_);stroke:#000000;stroke-miterlimit:10;}
	.st1{fill:#6A4838;stroke:#000000;stroke-miterlimit:10;}
	.st2{fill:#FFFFFF;stroke:#000000;stroke-miterlimit:10;}

	.opacity{ opacity: 0.5;}
	</style>

<defs>
	<script>
		(() => {
		let iconOne = document.querySelector("#Corkscrew");

		function logThisIconOne() {
			console.log(this.id);
		}

		iconOne.addEventListener("click", logThisIconOne);

		document.querySelector("#Corkscrew").addEventListener("click", opacity);

		function opacity() {
		document.getElementById("Corkscrew").classList.add("opacity");
		}

		})();
	</script>
</defs>




<linearGradient id="screw_1_" gradientUnits="userSpaceOnUse" x1="67.2689" y1="78.7169" x2="77.0634" y2="78.7169">
	<stop  offset="0" style="stop-color:#FFFFFF"/>
	<stop  offset="1" style="stop-color:#000000"/>
</linearGradient>
<path id="screw" class="st0" d="M69.9,122.8c0,0,7.3-6.5,0-12.1c0,0,9.3-4.8,0-10.8c0,0,10.2-5.8,0-12c0,0,10.7-6.4,0-11.4
	c0,0,1-7.5,2.4-9.1c0,0-2.5-1-2.4-3.2c0.1-2.2,0-27.8,0-27.8s3.3-4,5.4,0c0,0,1.5,28.5,0,30.5c0,0-4.5,7.8-3.2,9.2
	c1.3,1.3,6,6.5,3.8,8.3c-2.2,1.8-10.8,2.3-7,5c3.8,2.7,9.8,4,7.6,6.8c-2.2,2.8-10.1,0-9.2,2.8c0.8,2.8,9.8,5.3,8.3,8.3
	s-8-0.8-8.4,2.3c-0.4,3.2,9.1,5.8,7.2,9.5C72.7,122.9,69.9,122.8,69.9,122.8z"/>
<path id="handle_1_" class="st1" d="M72.2,2c0,0-53.3,5.8-65,2.3c0,0-6.3,1.8-6.7,14.5s6.3,15.7,6.3,15.7s59.6-8.7,63.1,1.8
	c0,0,3.2-4.3,5.9,0c0,0,7.9-12.1,66.8-1.8c0,0,14.2-14.4,0-30.7c0,0-42.6,3.8-66.6-1.9C76,2,74.4-1.4,72.2,2z"/>
<ellipse id="knob" class="st2" cx="73.3" cy="15.5" rx="2.8" ry="3.2"/>
</svg>
