<?xml version="1.0" encoding="utf-8"?>
<!-- Generator: Adobe Illustrator 22.1.0, SVG Export Plug-In . SVG Version: 6.00 Build 0)  -->
<svg version="1.1" id="Measuring_Cup" xmlns="http://www.w3.org/2000/svg" xmlns:xlink="http://www.w3.org/1999/xlink" x="0px"
	 y="0px" viewBox="0 0 270.8 189.3" style="enable-background:new 0 0 270.8 189.3;" xml:space="preserve">
<style type="text/css">
	.st0{fill:#E5FFFF;stroke:#000000;stroke-miterlimit:10;}
	.st1{fill:#FF2A36;stroke:#000000;stroke-miterlimit:10;}
	.opacity{ opacity: 0.5;}
	</style>

<defs>
	<script>
		(() => {
		let iconOne = document.querySelector("#Measuring_Cup");

		function logThisIconOne() {
			console.log(this.id);
		}

		iconOne.addEventListener("click", logThisIconOne);

		document.querySelector("#Measuring_Cup").addEventListener("click", opacity);

		function opacity() {
		document.getElementById("Measuring_Cup").classList.add("opacity");
		}

		})();
	</script>
</defs>


<path id="glass" class="st0" d="M15.3,10.9c0,0-22.8-3.3-11.9-7.6s11.9-2.4,11.9-2.4l240.5-0.4c0,0,26.6,68.9,7.6,98.3
	s-18.1-68.9-18.1-68.9s-10.5-6.7-16.2,0c0,0-4.8,156.8-23.3,158.3c-18.5,1.4-139.7,0-139.7,0S31.5,112.6,40.1,12.8
	C40.1,12.8,33.4,12.8,15.3,10.9z"/>
<path id="measuring_line4" class="st1" d="M69.1,38.9h129.7C198.8,38.9,96.6,46.5,69.1,38.9z"/>
<path id="measuring_line_3" class="st1" d="M177.9,76.3H98C98,76.3,160.8,84.6,177.9,76.3z"/>
<path id="measuring_line_2" class="st1" d="M155.1,114.5h-29.9C125.1,114.5,140.3,121.6,155.1,114.5z"/>
<path id="measuring_line_1" class="st1" d="M138,154.4h11.9C149.8,154.4,144.6,163,138,154.4z"/>
</svg>
