<?xml version="1.0" encoding="utf-8"?>
<!-- Generator: Adobe Illustrator 22.1.0, SVG Export Plug-In . SVG Version: 6.00 Build 0)  -->
<svg version="1.1" id="spatula" xmlns="http://www.w3.org/2000/svg" xmlns:xlink="http://www.w3.org/1999/xlink" x="0px" y="0px"
	 viewBox="0 0 147.8 117.2" style="enable-background:new 0 0 147.8 117.2;" xml:space="preserve">
<style type="text/css">
	.st0{fill:#838BC5;stroke:#000000;stroke-miterlimit:10;}
	.st1{fill:#808080;stroke:#000000;stroke-miterlimit:10;}
	.st2{fill:#FFFFFF;stroke:#000000;stroke-miterlimit:10;}
	.opacity{ opacity: 0.5;}
	</style>

<defs>
	<script>
		(() => {
		let iconOne = document.querySelector("#spatula");

		function logThisIconOne() {
			console.log(this.id);
		}

		iconOne.addEventListener("click", logThisIconOne);

		document.querySelector("#spatula").addEventListener("click", opacity);

		function opacity() {
		document.getElementById("spatula").classList.add("opacity");
		}

		})();
	</script>
</defs>

<path id="lifter" class="st0" d="M50.4,49.6l25.9,23.4c0,0-10.1,7-6.7,13.1c3.4,6.1,38.2,34.3,51.3,30.1s34.1-26.2,23.2-34.4
	C133.3,73.6,97,61,86.7,67.5l-3.4,2.6l-28.8-26C54.4,44.1,43.9,45.2,50.4,49.6z"/>
<path id="handle" class="st1" d="M1.8,13.6c0,0-8.4-22.5,16.9-8.6s43.5,43.9,33,43.4S15.8,29.1,1.8,13.6z"/>
<ellipse id="handlehole" transform="matrix(0.5639 -0.8258 0.8258 0.5639 -3.1783 15.4993)" class="st2" cx="13.1" cy="10.8" rx="4.1" ry="7.4"/>
<path id="slit3" class="st2" d="M80.4,84.1c0,0-0.8-3.4,2.7-2.3c3.4,1.1,32.5,23.4,32.5,23.4s1.3,5-2.2,3.1S80.4,84.1,80.4,84.1z"/>
<path id="slit2" class="st2" d="M87.3,77c0,0,0.4-3.1,3.1-2.3c2.7,0.8,34.1,21.5,34.1,21.5s0.2,4.9-2.8,3.4
	C118.8,98.1,86.2,76.6,87.3,77z"/>
<path id="slit1" class="st2" d="M95.4,71.8c0,0-0.3-2.3,3.1-1.8C102,70.6,131,88.8,131,88.8s-0.7,5-3.5,2.8S96.5,73.8,95.4,71.8z"/>
</svg>
