<?xml version="1.0" encoding="utf-8"?>
<!-- Generator: Adobe Illustrator 22.1.0, SVG Export Plug-In . SVG Version: 6.00 Build 0)  -->
<svg version="1.1" id="tongs" xmlns="http://www.w3.org/2000/svg" xmlns:xlink="http://www.w3.org/1999/xlink" x="0px" y="0px"
	 viewBox="0 0 79.5 123.3" style="enable-background:new 0 0 79.5 123.3;" xml:space="preserve">
<style type="text/css">
	.st0{fill:#CCCCCC;stroke:#000000;stroke-miterlimit:10;}
	.st1{fill:#808080;stroke:#000000;stroke-miterlimit:10;}
	.st2{fill:#333333;stroke:#000000;stroke-miterlimit:10;}
	.st3{fill:#FFFFFF;stroke:#000000;stroke-miterlimit:10;}
	.opacity{ opacity: 0.5;}
	</style>

<defs>
	<script>
		(() => {
		let iconOne = document.querySelector("#tongs");

		function logThisIconOne() {
			console.log(this.id);
		}

		iconOne.addEventListener("click", logThisIconOne);

		document.querySelector("#tongs").addEventListener("click", opacity);

		function opacity() {
		document.getElementById("tongs").classList.add("opacity");
		}

		})();
	</script>
</defs>


<path id="left_tong" class="st0" d="M42,122.8h10.7L26.2,35.8c0,0,7.1-9.4-3.2-10.8c0,0,10-6.8-2.5-8.3c0,0,5.8-5.2-3-5.1
	c0,0,0.4-7.3-4.5-7.3s-7.2-8.5-10.6,0S0.8,14.9,3.6,16.1c0,0-3.1,2.8,0.4,4.1c0,0-3.8,5.9,1.7,7.2c0,0-4.9,4.8,2.3,8.8
	S19.8,56,19.8,56L42,122.8z"/>
<path id="right_tong" class="st1" d="M49.4,108.5l10.3-72.7c0,0-6.9-5.9,0-10.9c0,0-3.8-5.1,1.7-7.2c0,0-3.5-6.8,2-8.8
	c0,0,3.5-4.7,5.2-3c0,0,5.6-5.8,7.1,0.3c0,0,3.4,3.1,1.1,6.5c0,0,4.5,1.8,0.8,5.9c0,0,3.3,5.4-1.2,5.9c0,0,3.8,6.8-4.9,12.7
	l-13.6,85.4h-4L49.4,108.5z"/>
<polygon id="holder" class="st2" points="58.8,109.2 38.1,109.2 37.2,105 59.5,105 "/>
<circle id="axle" class="st3" cx="55" cy="114.9" r="2.3"/>
<polygon id="right_tong_indent" class="st3" points="64.8,38.4 55,103.1 56.1,103.1 65.8,38.4 "/>
</svg>
