<?xml version="1.0" encoding="utf-8"?>
<!-- Generator: Adobe Illustrator 22.1.0, SVG Export Plug-In . SVG Version: 6.00 Build 0)  -->
<svg version="1.1" id="whisk" xmlns="http://www.w3.org/2000/svg" xmlns:xlink="http://www.w3.org/1999/xlink" x="0px" y="0px"
	 viewBox="0 0 97.8 130.8" style="enable-background:new 0 0 97.8 130.8;" xml:space="preserve">
<style type="text/css">
	.st0{fill:#FFFFFF;stroke:#000000;stroke-miterlimit:10;}
	.st1{fill:#A67858;stroke:#000000;stroke-miterlimit:10;}
	.opacity{ opacity: 0.5;}
	</style>

<defs>
	<script>
		(() => {
		let iconOne = document.querySelector("#whisk");

		function logThisIconOne() {
			console.log(this.id);
		}

		iconOne.addEventListener("click", logThisIconOne);

		document.querySelector("#whisk").addEventListener("click", opacity);

		function opacity() {
		document.getElementById("whisk").classList.add("opacity");
		}

		})();
	</script>
</defs>

<path id="wire5" class="st0" d="M3.9,124.2c0,0-24-29.4,56.1-80.2l3.9,3.9C63.9,48,41.7,156.7,3.9,124.2z"/>
<path id="wire4" class="st0" d="M59.7,45.7c0,0-56,45.2-57.8,64.8s19.5,20.7,26.9,13.5c7.4-7.2,33.5-70.8,33.3-75.4
	C62,44.2,59.7,45.7,59.7,45.7z"/>
<path id="wire3" class="st0" d="M60.2,46.9c0,0-56.7,53.7-54.9,71.9s38.3-12.8,55.7-71.9"/>
<path id="wire2" class="st0" d="M58.6,49.5c0,0-52.8,59.6-52,67.7S43.9,101.5,58.6,49.5z"/>
<path id="wood_handle" class="st1" d="M60.9,42.8L88.5,1.6c0,0,13.1-5,7.4,6.1c-5.6,11-30.4,39.3-30.4,39.3S59.7,50.2,60.9,42.8z"/>
<circle id="handle_hole" class="st0" cx="90.8" cy="6.4" r="2.4"/>
<path id="wire1" class="st0" d="M56.6,52.8L7.4,116.1C7.4,116.1,23.2,115.9,56.6,52.8z"/>
</svg>
